<?xml version="1.0" encoding="UTF-8"?>
<svg xmlns="http://www.w3.org/2000/svg" version="1.1" viewBox="0 0 853.3 205.6">
  <defs>
    <style>
      .cls-1 {
        stroke: #fff;
        stroke-miterlimit: 10;
      }

      .cls-1, .cls-2 {
        fill: #231f20;
      }

      .cls-3 {
        fill: #ca70ac;
      }

      .cls-4 {
        fill: #2a2b2a;
      }

      .cls-5 {
        fill: #644fa0;
      }

      .cls-6 {
        fill: #4b4a4a;
      }

      .cls-7 {
        fill: #654e9f;
      }
    </style>
  </defs>
  <!-- Generator: Adobe Illustrator 28.6.0, SVG Export Plug-In . SVG Version: 1.2.0 Build 709)  -->
  <g>
    <g id="Capa_1">
      <g id="Capa_1-2" data-name="Capa_1">
        <g>
          <g>
            <g>
              <path class="cls-7" d="M6.9,119.8V27.6c0-1.8,1.8-3.7,3.7-3.7h6.9c1.8,0,3.7,1.8,3.7,3.7v91.7c0,1.8-1.8,3.7-3.7,3.7h-6.9c-1.8,0-3.7-1.8-3.7-3.7v.5ZM19.3,90.9v-7.3c0-.9,0-1.8.9-2.8l54.1-56c.9-.9,1.8-.9,2.8-.9h6c3.2,0,5,3.7,2.8,6.4l-37.6,39.9-7.8,8.7-14.2,14.7c-2.3,2.3-6,.9-6.4-2.3l-.5-.5ZM76.6,122l-37.6-43.6c-1.4-1.4-1.4-3.7,0-5l4.6-5c1.4-1.8,4.1-1.8,5.5,0l39.9,48.6c1.8,2.3,0,6-2.8,6h-6.9c-.9,0-2.3-.5-2.8-1.4v.5Z"/>
              <path class="cls-7" d="M150.5,124.3c-7.8,0-14.7-1.4-21.1-3.7-6.4-2.8-11.9-6-17-10.6-4.6-4.6-8.3-10.1-11-16.1s-4.1-12.8-4.1-20.2,1.4-14.2,4.1-20.2c2.8-6,6.4-11.5,11-16.1s10.1-8.3,17-10.6c6.4-2.8,13.3-3.7,21.1-3.7s14.7,1.4,21.1,3.7c6.4,2.3,11.9,6,17,10.6,4.6,4.6,8.3,10.1,11,16.1,2.8,6,4.1,12.8,4.1,20.2s-1.4,14.2-4.1,20.2c-2.8,6-6.4,11.5-11,16.1s-10.6,8.3-17,10.6-13.3,3.7-21.1,3.7ZM150.5,112c5.5,0,10.6-.9,15.1-2.8s8.7-4.6,12.4-7.8c3.7-3.7,6-7.3,8.3-11.9,1.8-4.6,2.8-9.6,2.8-15.1s-.9-10.6-2.8-15.1c-1.8-4.6-4.6-8.7-8.3-11.9-3.7-3.7-7.3-6-12.4-7.8s-9.6-2.8-15.1-2.8-10.6.9-15.6,2.8-8.7,4.6-12.4,7.8c-3.7,3.7-6.4,7.3-8.3,11.9s-2.8,9.6-2.8,15.1.9,10.6,2.8,15.1,4.6,8.7,8.3,11.9,7.8,6,12.4,7.8,9.6,2.8,15.6,2.8Z"/>
              <path class="cls-3" d="M215.1,56.5l6.9-28.9,1.8,8.3c-2.8,0-5-.9-6.9-2.8s-2.8-4.1-2.8-6.9.9-5,2.8-6.9,4.1-2.8,6.9-2.8,5,.9,6.9,2.8,2.8,4.1,2.8,6.9v2.8c0,.9,0,1.8-.5,3.2,0,.9-.9,2.8-1.4,4.6l-6,17.4c-.5,1.4-1.8,2.3-3.7,2.3h-6.9Z"/>
              <path class="cls-7" d="M255,119.8V27.6c0-1.8,1.8-3.7,3.7-3.7h6c1.4,0,2.3.5,3.2,1.8l43.6,73.4h-6.4l43.1-73.4c.5-.9,1.8-1.8,3.2-1.8h6c1.8,0,3.7,1.8,3.7,3.7v91.7c0,1.8-1.4,3.7-3.7,3.7h-6.4c-1.8,0-3.7-1.8-3.7-3.7V45.4h3.2l-39,66.1h-6.4l-39.4-66.1h3.7v74.3c0,1.8-1.8,3.7-3.7,3.7h-6.4c-1.8,0-3.7-1.8-3.7-3.7h-.5Z"/>
              <path class="cls-7" d="M435.3,124.3c-7.8,0-14.7-1.4-21.1-3.7-6.4-2.8-11.9-6-17-10.6-4.6-4.6-8.3-10.1-11-16.1s-4.1-12.8-4.1-20.2,1.4-14.2,4.1-20.2c2.8-6,6.4-11.5,11-16.1s10.1-8.3,17-10.6c6.4-2.8,13.3-3.7,21.1-3.7s14.7,1.4,21.1,3.7,11.9,6,17,10.6c4.6,4.6,8.3,10.1,11,16.1s4.1,12.8,4.1,20.2-1.4,14.2-4.1,20.2-6.4,11.5-11,16.1-10.6,8.3-17,10.6-13.3,3.7-21.1,3.7ZM435.3,112c5.5,0,10.6-.9,15.1-2.8s8.7-4.6,12.4-7.8c3.7-3.7,6-7.3,8.3-11.9,1.8-4.6,2.8-9.6,2.8-15.1s-.9-10.6-2.8-15.1-4.6-8.7-8.3-11.9c-3.7-3.7-7.3-6-12.4-7.8s-9.6-2.8-15.1-2.8-10.6.9-15.6,2.8-8.7,4.6-12.4,7.8c-3.7,3.7-6.4,7.3-8.3,11.9s-2.8,9.6-2.8,15.1.9,10.6,2.8,15.1,4.6,8.7,8.3,11.9,7.8,6,12.4,7.8,9.6,2.8,15.6,2.8Z"/>
              <path class="cls-7" d="M509.6,119.8V27.6c0-1.8,1.8-3.7,3.7-3.7h38.1c10.6,0,19.7,2.3,28,6.4s14.2,10.1,18.8,17.4c4.6,7.3,6.9,16.1,6.9,26.1s-2.3,18.3-6.9,26.1c-4.6,7.3-11,13.3-18.8,17.4-8.3,4.1-17.4,6.4-28,6.4h-38.1c-1.8,0-3.7-1.8-3.7-3.7v-.5ZM523.9,107.4c0,1.8,1.8,3.7,3.7,3.7h22.9c8.3,0,15.1-1.4,21.6-4.6,6-3.2,10.6-7.3,13.8-13.3,3.2-5.5,5-11.9,5-19.7s-1.8-14.2-5-19.7c-3.2-5.5-7.8-10.1-13.8-12.8-6-3.2-13.3-4.6-21.6-4.6h-22.9c-1.8,0-3.7,1.8-3.7,3.7v67.4Z"/>
              <path class="cls-7" d="M612.8,117.9l41.7-91.7c.5-1.4,1.8-2.3,3.2-2.3h9.2c1.4,0,2.8.9,3.2,2.3l41.7,91.7c.9,2.3-.5,5-3.2,5h-6.9c-1.4,0-2.8-.9-3.2-2.3l-39-89h5.5l-39,89c-.5,1.4-1.8,2.3-3.2,2.3h-6.4c-2.8,0-4.6-2.8-3.2-5h-.5ZM641.3,85.4h42.2"/>
            </g>
            <path class="cls-3" d="M711,76.2s-.5,1.4-1.4,2.8-1.8,2.8-3.7,4.6c-1.8,1.4-4.1,2.8-6.9,4.1s-6.4,1.8-10.6,1.8-6,0-8.3-.9c-2.3-.5-5-1.4-7.3-2.3-2.3-.5-4.6-1.4-6.9-1.8s-4.6-.9-6.9-.9-4.6,0-6,.9c-1.8.5-2.8.9-4.1,1.8-.9.9-1.8,1.4-2.3,2.3-.5.5-.9,1.4-.9,1.4h-3.2c.5-1.8,1.8-3.7,3.2-5.5,1.4-1.4,3.2-2.8,5-4.1,1.8-.9,4.1-1.8,6.4-2.3s4.6-.9,6.4-.9,5,0,7.3.9c2.3.5,5,1.4,7.8,1.8,2.3.9,5,1.4,7.3,2.3,2.3.5,5,.9,7.3.9s4.6,0,6-.9c1.8-.5,3.2-1.4,4.1-1.8.9-.9,1.8-1.4,2.8-2.3.5-.9.9-1.4,1.4-1.4h3.2v-.5Z"/>
          </g>
          <g>
            <path class="cls-4" d="M739.5,48.7h-.5l-2.8,6.4h.5l2.8-.9h2.3v-.9h0l-4.1-1.8"/>
            <path class="cls-4" d="M753.7,53.2c-1.4-.5-2.3-1.4-3.7-1.8h0v2.8h0v-.9c0,1.4.5,2.8,1.4,4.1,0-1.4.9-2.3,1.8-3.2.5-.5,0-.9,0-.9h.5Z"/>
            <path class="cls-4" d="M737.2,52.3v.9h0s.5-.9.9-1.4h-2.8v.5c0,.9.5.9,0,1.8h.9l.5-.9.5-.9Z"/>
            <polygon class="cls-4" points="749.1 51.4 746.8 51.9 745.9 53.2 745.4 53.7 745.4 54.2 745 54.2 744.5 54.6 744.5 54.6 742.7 54.2 742.7 54.2 742.7 54.2 740.4 54.2 740.4 54.2 740.4 54.2 736.7 55.1 735.8 54.6 735.8 54.6 735.8 54.6 734.4 54.6 734.4 54.6 734.4 54.6 732.1 55.5 732.1 55.5 732.1 55.5 730.3 58.3 730.3 58.7 730.3 58.7 729.8 61 729.8 61 730.3 61 731.2 59.7 731.2 61 731.2 61 731.7 61 732.1 59.7 732.1 61.5 730.7 62.4 723.9 64.3 723.9 64.3 723.4 64.3 723.4 65.6 723.9 66.1 723.4 66.1 724.8 66.5 724.3 70.2 724.3 70.7 724.3 70.7 726.6 74.3 726.6 74.3 726.6 74.3 727.1 72.5 730.3 77.6 730.3 77.6 730.3 77.6 730.3 75.7 732.6 79.8 732.6 79.8 732.6 79.8 733.9 76.2 734.4 79.4 734.4 79.4 734.4 79.4 737.6 75.7 737.6 76.6 740.4 72 739.9 72 740.4 72 739.5 68.4 740.4 71.1 740.8 71.1 740.8 71.1 742.2 69.3 739.5 74.8 739.9 74.8 739.5 74.8 740.4 75.3 740.4 75.3 740.4 75.3 745 74.8 745 74.3 745 74.8 750.5 72.5 750.5 72.5 750.5 72.5 754.6 69.8 754.6 69.3 754.6 69.3 751.8 60.1 751.8 58.7 751.4 57.4 749.1 53.2 749.1 51.4"/>
            <path class="cls-5" d="M724.8,65.6c.9,0,.9-.5.9-1.4.5,0,1.4,0,1.8-.5,0,.9,1.4,0,1.8,0h-.9c-.5,0-1.4.9-1.8,1.4h-1.8"/>
            <path class="cls-2" d="M733.5,57.8"/>
            <path class="cls-2" d="M735.3,57.8"/>
            <path class="cls-5" d="M744.5,57.8c-.5,0-.9-.5-1.8-.5h-1.4c-.9,0-1.4.5-2.3.9v-.5h-1.4c0-.9.9-1.8,1.8-1.8h4.1-1.8c.5.5,1.4.9,1.8,1.4h0l.9.5Z"/>
            <path class="cls-5" d="M730.3,57.4c.5,0,.9-.5,1.8-.5h1.4c.9,0,1.4.5,2.3.9v-.5h1.4c0-.9-.9-1.8-1.8-1.8h-4.1,1.8c-.5.5-1.4.9-1.8,1.4h0l-.9.5Z"/>
            <path class="cls-1" d="M754.6,69.3"/>
            <path class="cls-1" d="M739.9,74.8"/>
            <path class="cls-4" d="M763.8,115.2l-.9-3.7v-5c.5,0,1.8-2.8,1.8-2.8l2.3-1.4h3.2l1.4,1.8-1.8-.9h-2.8l-1.4.9h0l-1.8,3.7h0v1.8h0v3.7h0l1.8,3.2h-1.8l-1.4.9h0v1.4h-.5l.5,1.4h0l.9.9h7.3l4.1-.9h.9v-.9h0v-1.4h0v-.9h0l-.9-.9v-.9l.5-1.8v-2.3h0v-4.1h-.5l-1.4-3.2h0l-1.4-1.8-1.4-5.5h0l-2.8-5.5h0l-4.1-6h0l-3.7-5-2.3-3.7-3.7-6.4h0l-3.2,2.3-4.6,2.3-4.6.9h-2.8l-2.3,5-1.4,2.8h0v4.1c-.5,0,0,0,0,0h0l.9,3.7v1.8l-.9,17.4-.9,1.8h0l-.9,2.8-1.8,1.8h0v1.8h0l1.4,1.4h6.9l1.8-1.4h0v-3.7l3.2-9.2v.9h.9v-2.8h0v-.5l-3.2-5.5v-2.3l1.4,3.2h0l3.7,5h0v-3.7,12.8c-.5,0-2.8,3.7-2.8,3.7l-1.4,1.8h0v1.4h.5l.9.9h7.8l1.4-.5h0l.9-1.4h0v-3.7l4.1-10.6h.5v.5h0v-7.8,1.4c.5,0,.9,5.5.9,5.5l-.9,2.8h0v-.5h0l-1.4,5v2.3l-.9,1.8-.9,1.4-.9,1.8h6v-.9h0v-1.4l.9-1.4"/>
            <path class="cls-4" d="M775.2,106.5s.9-1.4,1.4-2.8,0-3.7,0-4.6l.9,2.8-.9-3.2s.5-.9.9-.9,0,0,0,0l1.4,4.6-3.2,5.5v-1.8l-.5.5Z"/>
          </g>
          <g>
            <path class="cls-6" d="M295.9,193.6l5.5-26.6h-8.3v-3.2h20.6v3.2h-8.7l-5.5,26.6s-3.7,0-3.7,0Z"/>
            <path class="cls-6" d="M317.9,194.1c-.9,0-2.3,0-2.8-.5-.9,0-1.4-.9-1.8-1.8s-.5-1.8-.5-3.2v-3.7l2.8-13.8h3.2l-3.2,13.8v2.8c0,.9,0,1.8.9,2.3.5.5,1.4.9,2.3.9s2.3,0,3.2-.9c.9-.5,2.3-1.8,3.2-3.2s1.8-3.2,2.3-6l1.8-9.6h3.2l-4.6,22h-2.8v-4.1c.5,0,0,0,0,0-.5.9-.9,1.4-1.8,2.3-.9.9-1.4,1.4-2.8,1.8-.9.5-1.8.9-3.2.9h.5Z"/>
            <path class="cls-6" d="M352.8,194.1h-3.7c-.9,0-2.3-.5-3.2-.9v-3.2c.9,0,1.8.9,3.2,1.4.9,0,2.3.5,4.1.5h2.8c.9,0,1.8-.5,2.3-.9.5,0,1.4-.9,1.4-1.8s.5-1.4.5-2.8,0-1.4-.5-2.3c0-.5-.9-1.4-1.8-1.8s-1.8-1.4-2.8-1.8c-.9-.5-1.8-1.4-2.8-1.8s-1.4-1.4-1.8-2.3-.9-1.8-.9-3.2,0-2.8.9-3.7c.5-.9,1.4-1.8,2.3-2.8s1.8-1.4,3.2-1.8c1.4,0,2.3-.5,3.7-.5s2.8,0,4.1.5c.9,0,2.3.9,3.2,1.4l-1.4,2.8c-.9,0-1.8-.9-2.8-.9s-2.3-.5-3.2-.5h-2.3c-.9,0-1.4.5-1.8.9-.5,0-.9.9-1.4,1.8s-.5,1.4-.5,2.3,0,1.4.5,2.3c0,.5.9.9,1.4,1.4.5.5,1.4.9,2.3,1.4,1.4.9,2.3,1.4,3.2,2.3s1.8,1.4,2.3,2.3.9,1.8.9,3.2,0,2.8-.9,3.7c-.5.9-1.4,1.8-2.3,2.8-.9.9-2.3,1.4-3.2,1.8-1.4,0-2.8.5-4.1.5h-.9Z"/>
            <path class="cls-6" d="M375.7,194.1c-1.8,0-3.2,0-4.6-.9s-2.3-1.8-2.8-2.8-.9-2.8-.9-4.6,0-2.8.5-4.1c0-1.4.9-2.8,1.4-3.7.5-1.4,1.4-2.3,2.3-3.2s1.8-1.8,3.2-2.3c1.4-.5,2.3-.9,4.1-.9s3.2,0,4.6.9,2.3,1.8,2.8,2.8c.5,1.4.9,2.8.9,4.6v4.1c0,1.4-.9,2.8-1.4,3.7-.5,1.4-1.4,2.3-2.3,3.2s-1.8,1.8-3.2,2.3c-1.4.5-2.3.9-4.1.9h-.5ZM376.1,191.3c.9,0,1.8,0,2.3-.5s1.4-.9,1.8-1.4,1.4-1.4,1.8-2.3c0-.9.9-1.8.9-3.2v-4.1c0-1.4,0-1.8-.5-2.8,0-.9-.9-1.4-1.4-1.8s-1.4-.9-2.8-.9-1.8,0-2.8.5c-.9,0-1.4.9-2.3,1.8-.5.9-1.4,1.4-1.8,2.8,0,.9-.9,1.8-.9,3.2v3.7c0,1.4,0,3.2,1.4,4.1.9.9,2.3,1.4,3.7,1.4l.5-.5Z"/>
            <path class="cls-6" d="M399.1,194.1c-1.8,0-3.2,0-4.1-.9-1.4-.5-2.3-1.4-2.8-2.8s-.9-2.8-.9-4.6,0-3.2.5-4.6c0-1.4.9-2.8,1.4-4.1s1.4-2.3,2.3-3.2,1.8-1.8,3.2-2.3,2.8-.9,4.1-.9h2.8c.9,0,1.8,0,2.8.9l-.9,2.8c-.5,0-1.4-.5-1.8-.9h-2.3c-.9,0-2.3,0-3.2.9-.9.5-1.8,1.4-2.8,2.8-.9.9-1.4,2.3-1.8,3.7,0,1.4-.5,2.8-.5,4.6s0,2.3.5,2.8c0,.9.9,1.4,1.8,1.8.9,0,1.8.5,2.8.5h2.8c.9,0,1.8-.5,2.8-.9v2.8c-.9,0-1.4.9-2.8.9h-3.2l-.5.9Z"/>
            <path class="cls-6" d="M408.7,193.6l4.6-22h3.2l-4.6,22h-3.2ZM416.5,167.5c-.5,0-.9,0-1.4-.5,0,0-.5-.9-.5-1.4v-1.4s0-.9.9-.9h1.4c.5,0,.9,0,1.4.5v1.4c0,.9,0,1.4-.9,1.8,0,.5-.9.9-1.4.9l.5-.5Z"/>
            <path class="cls-6" d="M428.4,194.1c-1.8,0-3.2,0-4.6-.9s-2.3-1.8-2.8-2.8-.9-2.8-.9-4.6,0-2.8.5-4.1c0-1.4.9-2.8,1.4-3.7s1.4-2.3,2.3-3.2,1.8-1.8,3.2-2.3c1.4-.5,2.3-.9,4.1-.9s3.2,0,4.6.9,2.3,1.8,2.8,2.8c.5,1.4.9,2.8.9,4.6v4.1c0,1.4-.9,2.8-1.4,3.7s-1.4,2.3-2.3,3.2-1.8,1.8-3.2,2.3c-1.4.5-2.3.9-4.1.9h-.5ZM428.4,191.3c.9,0,1.8,0,2.3-.5.9,0,1.4-.9,2.3-1.4.5-.5,1.4-1.4,1.4-2.3s.9-1.8.9-3.2v-4.1c0-1.4,0-1.8-.5-2.8,0-.9-.9-1.4-1.4-1.8-.9-.5-1.4-.9-2.8-.9s-1.8,0-2.8.5c-.9,0-1.4.9-2.3,1.8-.5.9-1.4,1.4-1.4,2.8s-.9,1.8-.9,3.2v3.7c0,1.4,0,3.2,1.4,4.1.9.9,2.3,1.4,3.7,1.4v-.5Z"/>
            <path class="cls-6" d="M460.1,194.1c-1.4,0-2.3,0-3.2-.9-.9-.5-1.4-1.4-2.3-2.8-.5-.9-.9-2.3-.9-4.1s0-3.2.5-4.6.9-2.8,1.4-4.1c.5-1.4,1.4-2.3,2.3-3.2s1.8-1.8,3.2-2.3c.9-.5,2.3-.9,3.7-.9s1.8,0,2.8.5,1.4.9,1.8,1.4.9,1.4,1.4,1.8h0l1.4-3.7h2.8l-4.6,22h-2.8v-4.1c.5,0,0,0,0,0-.5.9-1.4,1.4-2.3,2.3s-1.8,1.4-2.8,1.8c-.9,0-1.8.5-3.2.5l.9.5ZM461.5,191.3c.9,0,1.8,0,3.2-.9.9-.9,1.8-1.8,2.8-3.2s1.4-2.8,1.8-4.6v-4.1c0-1.4,0-2.3-.9-3.2s-1.8-1.4-3.2-1.4-1.8,0-2.8.5c-.9,0-1.4.9-2.3,1.8-.5.9-1.4,1.8-1.8,2.8s-.9,2.3-.9,3.7v3.7c0,1.4,0,2.8.9,3.7.5.9,1.4,1.4,2.8,1.4h.5Z"/>
            <path class="cls-6" d="M476.6,193.6l6.9-31.7h3.2l-6.9,31.7h-3.2Z"/>
            <path class="cls-6" d="M495.9,203.7l6.9-32.1h2.8v4.1c-.5,0,0,0,0,0,.5-.9,1.4-1.8,2.3-2.3s1.4-1.4,2.3-1.8,1.8-.5,2.8-.5,2.3,0,3.2.9c.9.5,1.8,1.4,2.3,2.8.5.9.9,2.3.9,4.1s0,3.2-.5,4.6c0,1.4-.9,2.8-1.4,4.1-.5,1.4-1.4,2.3-2.3,3.2s-1.8,1.8-3.2,2.3c-.9.5-2.3.9-3.7.9s-1.8,0-2.8-.5-1.4-.9-1.8-1.4-.9-1.4-1.4-1.8h0v3.7l-1.8,9.6h-4.6ZM507.8,191.3c.9,0,1.8,0,2.8-.9.9-.5,1.4-.9,2.3-1.8s1.4-1.8,1.4-2.8.9-2.3.9-3.2v-3.7c0-1.4,0-2.8-.9-3.7-.5-.9-1.4-1.4-2.8-1.4s-1.4,0-1.8.5c-.5,0-1.4.9-1.8,1.4s-1.4,1.4-1.8,1.8c-.5.9-.9,1.8-1.4,2.8,0,.9-.9,1.8-.9,3.2v3.2c0,.9,0,2.8.9,3.2s1.8,1.4,3.2,1.4Z"/>
            <path class="cls-6" d="M531.2,194.1c-1.8,0-3.2,0-4.6-.9s-2.3-1.8-2.8-2.8-.9-2.8-.9-4.6,0-2.8.5-4.1c0-1.4.9-2.8,1.4-3.7.5-1.4,1.4-2.3,2.3-3.2s1.8-1.8,3.2-2.3c1.4-.5,2.3-.9,4.1-.9s3.2,0,4.6.9,2.3,1.8,2.8,2.8c.5,1.4.9,2.8.9,4.6v4.1c0,1.4-.9,2.8-1.4,3.7s-1.4,2.3-2.3,3.2-1.8,1.8-3.2,2.3c-1.4.5-2.3.9-4.1.9h-.5ZM531.2,191.3c.9,0,1.8,0,2.3-.5.9,0,1.4-.9,1.8-1.4s1.4-1.4,1.8-2.3.9-1.8.9-3.2v-4.1c0-1.4,0-1.8-.5-2.8,0-.9-.9-1.4-1.4-1.8-.9-.5-1.4-.9-2.8-.9s-1.8,0-2.8.5c-.9,0-1.4.9-2.3,1.8-.5.9-1.4,1.4-1.8,2.8,0,.9-.9,1.8-.9,3.2v3.7c0,1.4,0,3.2,1.4,4.1.9.9,2.3,1.4,3.7,1.4l.5-.5Z"/>
            <path class="cls-6" d="M545.4,193.6l4.6-22h2.8v4.1c-.5,0,0,0,0,0,.5-.9,1.4-1.4,1.8-2.3s1.4-1.4,2.3-1.8,1.8-.5,2.8-.5h2.8l-.9,3.2h-1.8c-.9,0-1.8,0-2.8.9-.9.5-1.8,1.4-2.3,2.3-.9.9-1.4,1.8-1.8,2.8-.5.9-.9,2.3-.9,3.2l-2.3,10.1h-4.1Z"/>
            <path class="cls-6" d="M572.9,193.6l6.4-29.4h5l3.2,24.3h0l13.3-24.3h5l-6,29.4h-3.2l3.7-18.3c0-.9.5-2.3.9-3.2,0-.9,0-1.8.5-2.8,0-.9,0-1.4.5-1.8h0l-14.7,26.1h-2.8l-3.2-26.1h0v5c0,.9,0,1.8-.5,2.8l-4.1,18.3h-4.1Z"/>
            <path class="cls-6" d="M613.8,194.1c-1.4,0-2.3,0-3.2-.9-.9-.5-1.4-1.4-2.3-2.8-.5-.9-.9-2.3-.9-4.1s0-3.2.5-4.6c0-1.4.9-2.8,1.4-4.1.5-1.4,1.4-2.3,2.3-3.2s1.8-1.8,3.2-2.3c.9-.5,2.3-.9,3.7-.9s1.8,0,2.8.5,1.4.9,1.8,1.4c.5.5.9,1.4,1.4,1.8h0l1.4-3.7h2.8l-4.6,22h-2.8v-4.1c.5,0,0,0,0,0-.5.9-1.4,1.4-2.3,2.3s-1.8,1.4-2.8,1.8c-.9,0-1.8.5-3.2.5l.9.5ZM615.1,191.3c.9,0,2.3,0,3.2-.9s1.8-1.8,2.8-3.2c.9-1.4,1.4-2.8,1.8-4.6v-4.1c0-1.4,0-2.3-.9-3.2s-1.8-1.4-3.2-1.4-1.8,0-2.8.5c-.9,0-1.4.9-2.3,1.8s-1.4,1.8-1.8,2.8c-.5.9-.9,2.3-.9,3.7v3.7c0,1.4,0,2.8.9,3.7.5.9,1.4,1.4,2.8,1.4h.5Z"/>
            <path class="cls-6" d="M628,203.7h-2.8v-2.8h2.8c.9,0,1.8,0,2.8-.9.9-.9,1.4-1.8,2.3-3.2l1.4-2.8-3.2-22.5h3.2l1.4,11.5v7.8h0s.5-.9.9-1.8.9-1.8,1.4-2.8c0-.9.9-1.8,1.4-2.3l6.4-12.4h3.7l-14.2,26.1c-.9,1.4-1.4,2.3-2.3,3.2s-1.8,1.4-2.8,1.8c-.9,0-1.8.5-3.2.5l.9.5Z"/>
            <path class="cls-6" d="M658.7,194.1c-1.8,0-3.2,0-4.6-.9s-2.3-1.8-2.8-2.8-.9-2.8-.9-4.6,0-2.8.5-4.1c0-1.4.9-2.8,1.4-3.7.5-1.4,1.4-2.3,2.3-3.2s1.8-1.8,3.2-2.3,2.3-.9,4.1-.9,3.2,0,4.6.9,2.3,1.8,2.8,2.8c.5,1.4.9,2.8.9,4.6v4.1c0,1.4-.9,2.8-1.4,3.7s-1.4,2.3-2.3,3.2-1.8,1.8-3.2,2.3-2.3.9-4.1.9h-.5ZM658.7,191.3c.9,0,1.8,0,2.3-.5.9,0,1.4-.9,1.8-1.4.5-.5,1.4-1.4,1.8-2.3s.9-1.8.9-3.2v-4.1c0-1.4,0-1.8-.5-2.8,0-.9-.9-1.4-1.4-1.8-.9-.5-1.4-.9-2.8-.9s-1.8,0-2.8.5c-.9,0-1.4.9-2.3,1.8-.5.9-1.4,1.4-1.8,2.8,0,.9-.9,1.8-.9,3.2v3.7c0,1.4,0,3.2,1.4,4.1.9.9,2.3,1.4,3.7,1.4l.5-.5Z"/>
            <path class="cls-6" d="M672.9,193.6l4.6-22h2.8v4.1c-.5,0,0,0,0,0,.5-.9,1.4-1.4,1.8-2.3.5-.9,1.4-1.4,2.3-1.8s1.8-.5,2.8-.5h2.8l-.9,3.2h-1.8c-.9,0-1.8,0-2.8.9-.9.5-1.8,1.4-2.3,2.3-.9.9-1.4,1.8-1.8,2.8-.5.9-.9,2.3-.9,3.2l-2.3,10.1h-4.1Z"/>
            <path class="cls-6" d="M697.7,203.7h-2.8v-2.8h2.8c.9,0,1.8,0,2.8-.9.9-.9,1.4-1.8,2.3-3.2l1.4-2.8-3.2-22.5h3.2l1.4,11.5v7.8h0s.5-.9.9-1.8.9-1.8,1.4-2.8c0-.9.9-1.8,1.4-2.3l6.4-12.4h3.7l-14.2,26.1c-.9,1.4-1.4,2.3-2.3,3.2s-1.8,1.4-2.8,1.8c-.9,0-1.8.5-3.2.5l.9.5Z"/>
            <path class="cls-6" d="M730.3,193.6l6.4-29.4h5l3.2,24.3h0l13.3-24.3h5l-6,29.4h-3.2l3.7-18.3c0-.9.5-2.3.9-3.2,0-.9,0-1.8.5-2.8,0-.9,0-1.4.5-1.8h0l-14.7,26.1h-2.8l-3.2-26.1h0v5c0,.9,0,1.8-.5,2.8l-4.1,18.3h-4.1Z"/>
            <path class="cls-6" d="M773.4,194.1c-1.8,0-3.2,0-4.1-.9s-2.3-1.8-2.8-2.8-.9-2.8-.9-4.6,0-3.7.9-5.5c.5-1.8,1.4-3.2,2.3-4.6s2.3-2.8,3.7-3.2c1.4-.9,2.8-1.4,4.6-1.4s3.7,0,4.6,1.4c.9.9,1.4,2.3,1.4,3.7s0,2.3-.9,3.2c-.5.9-1.4,1.8-2.3,2.3-.9.9-2.3,1.4-4.1,1.8-1.8,0-3.7.5-6,.5h-.9v1.8c0,1.8,0,3.2,1.4,4.1.9.9,2.3,1.4,3.7,1.4h3.2c.9,0,1.8-.9,2.8-1.4v2.8c-.9,0-1.8.9-3.2.9h-3.7l.5.5ZM769.3,181.2h5c1.4,0,2.8-.9,3.7-1.4.9-.9,1.4-1.8,1.4-2.8s0-1.4-.9-1.8c-.5-.5-1.4-.9-2.3-.9s-1.8,0-2.8.9c-.9.5-1.8,1.4-2.3,2.3-.9.9-1.4,2.3-1.8,4.1v-.5Z"/>
            <path class="cls-6" d="M784.9,193.6l4.6-22.5h2.8v4.1h-.5c.5-.9.9-1.4,1.8-2.3s1.4-1.4,2.8-1.8,1.8-.9,3.2-.9,2.3,0,3.2.5c.9,0,1.4.9,1.8,1.8,0,.9.5,1.8.5,3.2v3.7l-2.8,13.8h-3.7l3.2-13.8v-2.8c0-.9,0-1.8-.9-2.3-.5-.5-1.4-.9-2.3-.9s-1.8,0-3.2.9c-.9.5-2.3,1.8-3.2,3.2s-1.8,3.2-2.3,5.5l-2.3,9.6h-3.7l.9.9Z"/>
            <path class="cls-6" d="M817.9,194.1c-1.8,0-3.2,0-4.6-.9s-2.3-1.8-2.8-2.8-.9-2.8-.9-4.6,0-2.8.5-4.1c0-1.4.9-2.8,1.4-3.7.5-1.4,1.4-2.3,2.3-3.2s1.8-1.8,3.2-2.3,2.3-.9,4.1-.9,3.2,0,4.6.9,2.3,1.8,2.8,2.8c.5,1.4.9,2.8.9,4.6v4.1c0,1.4-.9,2.8-1.4,3.7s-1.4,2.3-2.3,3.2-1.8,1.8-3.2,2.3-2.3.9-4.1.9h-.5ZM817.9,191.3c.9,0,1.8,0,2.3-.5.9,0,1.4-.9,1.8-1.4.5-.5,1.4-1.4,1.8-2.3s.9-1.8.9-3.2v-4.1c0-1.4,0-1.8-.5-2.8,0-.9-.9-1.4-1.4-1.8-.9-.5-1.4-.9-2.8-.9s-1.8,0-2.8.5c-.9,0-1.4.9-2.3,1.8-.5.9-1.4,1.4-1.8,2.8,0,.9-.9,1.8-.9,3.2v3.7c0,1.4,0,3.2,1.4,4.1.9.9,2.3,1.4,3.7,1.4l.5-.5Z"/>
            <path class="cls-6" d="M832.1,193.6l4.6-22h2.8v4.1c-.5,0,0,0,0,0,.5-.9,1.4-1.4,1.8-2.3.5-.9,1.4-1.4,2.3-1.8s1.8-.5,2.8-.5h2.8l-.9,3.2h-1.8c-.9,0-1.8,0-2.8.9-.9.5-1.8,1.4-2.3,2.3-.9.9-1.4,1.8-1.8,2.8-.5.9-.9,2.3-.9,3.2l-2.3,10.1h-4.1Z"/>
          </g>
        </g>
      </g>
    </g>
  </g>
</svg>